<svg width="177" height="209" viewBox="0 0 177 209" fill="none" xmlns="http://www.w3.org/2000/svg">
<path fill-rule="evenodd" clip-rule="evenodd" d="M0 209H177V0H0V209Z" fill="black"/>
<path fill-rule="evenodd" clip-rule="evenodd" d="M79.18 64.3824C79.18 72.8301 73.747 77.2454 62.106 77.2454H45.7425C45.161 77.2454 44.772 76.8605 44.772 76.2851V33.4107C44.772 32.8353 45.161 32.4504 45.7425 32.4504H62.0415C70.7075 32.4504 75.6235 37.5697 75.6235 44.1617C75.6235 48.897 73.0365 52.2245 70.385 53.3761C74.524 54.5278 79.18 58.3668 79.18 64.3824" fill="white"/>
<path fill-rule="evenodd" clip-rule="evenodd" d="M82.199 32.4504H92.803C93.3835 32.4504 93.7725 32.8353 93.7725 33.4107V76.2851C93.7725 76.8605 93.3835 77.2454 92.803 77.2454H82.199C81.6175 77.2454 81.2285 76.8605 81.2285 76.2851V33.4107C81.2285 32.8353 81.6175 32.4504 82.199 32.4504" fill="white"/>
<path fill-rule="evenodd" clip-rule="evenodd" d="M132.312 63.3338V76.2851C132.312 76.8615 131.922 77.2454 131.34 77.2454H100.425C99.8428 77.2454 99.4568 76.8615 99.4568 76.2851V68.2862C99.4568 67.8385 99.5848 67.5184 99.8428 67.1345L112.063 47.4125H101.073C100.49 47.4125 100.103 47.0286 100.103 46.4523V33.4107C100.103 32.8353 100.49 32.4504 101.073 32.4504H130.694C131.277 32.4504 131.666 32.8353 131.666 33.4107V41.2987C131.666 41.7474 131.536 42.0665 131.277 42.4504L119.628 62.3736H131.34C131.922 62.3736 132.312 62.7575 132.312 63.3338" fill="white"/>
<path fill-rule="evenodd" clip-rule="evenodd" d="M40.215 104.531C40.215 92.0212 50.4677 82.0635 62.9224 82.0635C75.379 82.0635 85.6318 92.0212 85.6318 104.531C85.6318 116.978 75.379 126.936 62.9224 126.936C50.4677 126.936 40.215 116.978 40.215 104.531" fill="white"/>
<path fill-rule="evenodd" clip-rule="evenodd" d="M90.3427 154.145C90.3427 141.634 100.594 131.677 113.05 131.677C125.506 131.677 135.758 141.634 135.758 154.145C135.758 166.592 125.506 176.549 113.05 176.549C100.594 176.549 90.3427 166.592 90.3427 154.145" fill="white"/>
<path fill-rule="evenodd" clip-rule="evenodd" d="M130.985 83.0217V125.818C130.985 126.393 130.597 126.776 130.017 126.776H119.625C119.107 126.776 118.721 126.584 118.463 126.138L105.695 111.815V125.818C105.695 126.393 105.307 126.776 104.726 126.776H91.3122C90.7316 126.776 90.3427 126.393 90.3427 125.818V83.0217C90.3427 82.4474 90.7316 82.0635 91.3122 82.0635H102.011C102.373 82.0635 102.915 82.2549 103.173 82.7026L115.864 96.8528V83.0217C115.864 82.4474 116.25 82.0635 116.832 82.0635H130.017C130.597 82.0635 130.985 82.4474 130.985 83.0217" fill="white"/>
<path fill-rule="evenodd" clip-rule="evenodd" d="M71.252 159.292C69.5065 162.041 66.4233 163.832 62.9224 163.832C57.5281 163.832 53.0864 159.518 53.0864 154.126C53.0864 148.707 57.5281 144.394 62.9224 144.394C65.555 144.394 67.9574 145.422 69.7297 147.104C70.1376 147.49 70.7816 147.473 71.1646 147.062L78.5089 139.166C78.88 138.768 78.8711 138.143 78.4731 137.774C74.3976 133.987 68.916 131.677 62.9214 131.677C50.4677 131.677 40.215 141.634 40.215 154.145C40.215 166.592 50.4677 176.549 62.9214 176.549C75.3781 176.549 85.6308 166.592 85.6308 154.145V151.763C85.6308 151.212 85.1793 150.764 84.6226 150.764H63.9316C63.3749 150.764 62.9224 151.212 62.9224 151.763V158.297C62.9224 158.849 63.3749 159.295 63.9316 159.295L71.252 159.292Z" fill="white"/>
</svg>
