<svg width="500" height="500" viewBox="0 0 500 500" fill="none" xmlns="http://www.w3.org/2000/svg">
<g clip-path="url(#clip0_840_2769)">
<path d="M444.71 349.14H264C262.447 349.137 260.958 348.519 259.859 347.421C258.761 346.322 258.143 344.833 258.14 343.28V79.9999C258.145 78.4483 258.765 76.9619 259.863 75.8656C260.961 74.7694 262.448 74.1525 264 74.1499H444.71C446.262 74.1525 447.749 74.7694 448.847 75.8656C449.945 76.9619 450.565 78.4483 450.57 79.9999V343.28C450.567 344.833 449.949 346.322 448.851 347.421C447.752 348.519 446.263 349.137 444.71 349.14ZM264 74.3999C263.261 74.3946 262.528 74.5355 261.843 74.8145C261.159 75.0934 260.536 75.5049 260.011 76.0253C259.486 76.5457 259.069 77.1647 258.784 77.8468C258.499 78.5289 258.351 79.2606 258.35 79.9999V343.28C258.35 344.768 258.941 346.195 259.993 347.247C261.045 348.299 262.472 348.89 263.96 348.89H444.71C446.198 348.89 447.625 348.299 448.677 347.247C449.729 346.195 450.32 344.768 450.32 343.28V79.9999C450.32 78.512 449.729 77.0851 448.677 76.033C447.625 74.981 446.198 74.3899 444.71 74.3899L264 74.3999Z" fill="#F0F0F0"/>
<path d="M236.28 349.14H55.5299C53.9766 349.137 52.4876 348.519 51.3892 347.421C50.2908 346.322 49.6726 344.834 49.6699 343.28V80.0001C49.6726 78.4468 50.2908 76.9578 51.3892 75.8594C52.4876 74.761 53.9766 74.1428 55.5299 74.1401H236.28C237.833 74.1428 239.322 74.761 240.421 75.8594C241.519 76.9578 242.137 78.4468 242.14 80.0001V343.28C242.137 344.834 241.519 346.322 240.421 347.421C239.322 348.519 237.833 349.137 236.28 349.14ZM55.5299 74.4001C54.0438 74.4001 52.6184 74.9898 51.5666 76.0397C50.5148 77.0897 49.9226 78.514 49.9199 80.0001V343.28C49.9199 344.768 50.511 346.195 51.5631 347.247C52.6151 348.299 54.0421 348.89 55.5299 348.89H236.28C237.768 348.89 239.195 348.299 240.247 347.247C241.299 346.195 241.89 344.768 241.89 343.28V80.0001C241.89 78.5123 241.299 77.0854 240.247 76.0333C239.195 74.9812 237.768 74.3901 236.28 74.3901L55.5299 74.4001Z" fill="#F0F0F0"/>
<path d="M500.79 410.21H0.790039V410.46H500.79V410.21Z" fill="#E0E0E0"/>
<path d="M181.22 99.5503H212.79C213.618 99.5503 214.29 98.8787 214.29 98.0503V90.9203C214.29 90.0919 213.618 89.4203 212.79 89.4203H181.22C180.392 89.4203 179.72 90.0919 179.72 90.9203V98.0503C179.72 98.8787 180.392 99.5503 181.22 99.5503Z" fill="#F0F0F0"/>
<path d="M162.36 112.46H193.93C194.758 112.46 195.43 111.788 195.43 110.96V103.83C195.43 103.002 194.758 102.33 193.93 102.33H162.36C161.532 102.33 160.86 103.002 160.86 103.83V110.96C160.86 111.788 161.532 112.46 162.36 112.46Z" fill="#F0F0F0"/>
<path d="M96.9701 241.32H65.4001C64.5717 241.32 63.9001 241.992 63.9001 242.82V249.95C63.9001 250.779 64.5717 251.45 65.4001 251.45H96.9701C97.7986 251.45 98.4701 250.779 98.4701 249.95V242.82C98.4701 241.992 97.7986 241.32 96.9701 241.32Z" fill="#F0F0F0"/>
<path d="M115.82 254.24H84.25C83.4216 254.24 82.75 254.912 82.75 255.74V262.87C82.75 263.699 83.4216 264.37 84.25 264.37H115.82C116.648 264.37 117.32 263.699 117.32 262.87V255.74C117.32 254.912 116.648 254.24 115.82 254.24Z" fill="#F0F0F0"/>
<path d="M401.23 251.54H369.66C368.832 251.54 368.16 252.212 368.16 253.04V260.17C368.16 260.998 368.832 261.67 369.66 261.67H401.23C402.059 261.67 402.73 260.998 402.73 260.17V253.04C402.73 252.212 402.059 251.54 401.23 251.54Z" fill="#F0F0F0"/>
<path d="M438.94 251.54H407.37C406.542 251.54 405.87 252.212 405.87 253.04V260.17C405.87 260.998 406.542 261.67 407.37 261.67H438.94C439.769 261.67 440.44 260.998 440.44 260.17V253.04C440.44 252.212 439.769 251.54 438.94 251.54Z" fill="#F0F0F0"/>
<path d="M420.08 264.45H388.51C387.682 264.45 387.01 265.122 387.01 265.95V273.08C387.01 273.909 387.682 274.58 388.51 274.58H420.08C420.908 274.58 421.58 273.909 421.58 273.08V265.95C421.58 265.122 420.908 264.45 420.08 264.45Z" fill="#F0F0F0"/>
<path d="M457.62 324.25H421.55V410.21H457.62V324.25Z" fill="#E6E6E6"/>
<path d="M430 324.25H344.04V410.21H430V324.25Z" fill="#F5F5F5"/>
<path d="M393.53 324.25H382.91V409.96H393.53V324.25Z" fill="#FAFAFA"/>
<path d="M161.44 324.25H125.37V410.21H161.44V324.25Z" fill="#E6E6E6"/>
<path d="M133.82 324.25H47.8601V410.21H133.82V324.25Z" fill="#F5F5F5"/>
<path d="M97.34 324.25H86.72V409.96H97.34V324.25Z" fill="#FAFAFA"/>
<path d="M344.05 369.98H307.98V410.22H344.05V369.98Z" fill="#E6E6E6"/>
<path d="M316.43 369.98H230.47V410.22H316.43V369.98Z" fill="#F5F5F5"/>
<path d="M279.96 369.98H269.34V410.1H279.96V369.98Z" fill="#FAFAFA"/>
<path d="M178.29 284.01H142.22V324.25H178.29V284.01Z" fill="#E6E6E6"/>
<path d="M150.68 284.01H64.72V324.25H150.68V284.01Z" fill="#F5F5F5"/>
<path d="M114.2 284.01H103.58V324.13H114.2V284.01Z" fill="#FAFAFA"/>
<path d="M355.95 93.4199H276.93V172.44H355.95V93.4199Z" fill="#E6E6E6"/>
<path d="M351.95 168.44V97.4199H280.93V168.44H351.95Z" fill="#FAFAFA"/>
<path d="M311.68 152.31C311.68 152.31 324.68 125.57 351.95 125.04V168.44H316.44L311.68 152.31Z" fill="#F0F0F0"/>
<path d="M280.93 144.8C280.93 144.8 292.65 138.65 304.57 143.17C319.57 148.83 328.22 168.44 328.22 168.44H280.93V144.8Z" fill="#F5F5F5"/>
<path d="M305.29 132.46C312.21 132.46 317.82 126.85 317.82 119.93C317.82 113.01 312.21 107.4 305.29 107.4C298.37 107.4 292.76 113.01 292.76 119.93C292.76 126.85 298.37 132.46 305.29 132.46Z" fill="white"/>
<path d="M131.09 93.4199H61.76V227.63H131.09V93.4199Z" fill="#E6E6E6"/>
<path d="M127.09 223.63L127.09 97.4199H65.7601V223.63H127.09Z" fill="#FAFAFA"/>
<path d="M87 149.06C93.9201 149.06 99.53 143.45 99.53 136.53C99.53 129.61 93.9201 124 87 124C80.0798 124 74.47 129.61 74.47 136.53C74.47 143.45 80.0798 149.06 87 149.06Z" fill="white"/>
<path d="M77.23 223.63C77.23 223.63 92.75 149 127.09 142.3V223.63H77.23Z" fill="#F0F0F0"/>
<path d="M65.76 179.34C65.76 179.34 73.66 171.72 86.18 176.28C109.7 184.83 122.83 223.63 122.83 223.63H65.76V179.34Z" fill="#F5F5F5"/>
<path d="M406.86 152.038C418.337 150.618 426.491 140.163 425.071 128.686C423.652 117.209 413.197 109.055 401.72 110.474C390.242 111.894 382.089 122.349 383.508 133.826C384.927 145.304 395.382 153.457 406.86 152.038Z" fill="#E0E0E0"/>
<path d="M423.077 135.618C425.505 125.245 419.063 114.868 408.69 112.441C398.316 110.013 387.939 116.455 385.512 126.828C383.085 137.202 389.526 147.579 399.9 150.006C410.273 152.433 420.65 145.992 423.077 135.618Z" fill="#FAFAFA"/>
<path d="M404.35 113.7H403.63V117.72H404.35V113.7Z" fill="#E0E0E0"/>
<path d="M404.35 144.63H403.63V148.65H404.35V144.63Z" fill="#E0E0E0"/>
<path d="M390.53 130.82H386.51V131.54H390.53V130.82Z" fill="#E0E0E0"/>
<path d="M421.47 130.82H417.45V131.54H421.47V130.82Z" fill="#E0E0E0"/>
<path d="M416.116 118.593L413.273 121.436L413.782 121.945L416.625 119.103L416.116 118.593Z" fill="#E0E0E0"/>
<path d="M394.219 140.45L391.378 143.294L391.887 143.803L394.729 140.959L394.219 140.45Z" fill="#E0E0E0"/>
<path d="M391.89 118.575L391.381 119.084L394.224 121.927L394.733 121.417L391.89 118.575Z" fill="#E0E0E0"/>
<path d="M413.774 140.47L413.265 140.979L416.107 143.822L416.616 143.313L413.774 140.47Z" fill="#E0E0E0"/>
<path d="M403.844 130.689L403.617 131.266L410.438 133.951L410.665 133.374L403.844 130.689Z" fill="#E0E0E0"/>
<path d="M404.3 131.49H393.05V130.87H403.68V122.14H404.3V131.49Z" fill="#E0E0E0"/>
<path d="M468.48 454C468.48 457.5 371.89 460.34 252.74 460.34C133.59 460.34 37 457.52 37 454C37 450.48 133.59 447.67 252.74 447.67C371.89 447.67 468.48 450.52 468.48 454Z" fill="#F5F5F5"/>
<path d="M385.33 205.79L404.3 222.81H321.99L305.91 205.79H385.33Z" fill="#0486FF"/>
<path opacity="0.5" d="M385.33 205.79L404.3 222.81H321.99L305.91 205.79H385.33Z" fill="black"/>
<path d="M385.37 205.79H305.91V285.25H385.37V205.79Z" fill="#0486FF"/>
<path opacity="0.2" d="M385.37 205.79H305.91V285.25H385.37V205.79Z" fill="black"/>
<path d="M359.85 205.79H280.39V285.25H359.85V205.79Z" fill="#0486FF"/>
<path d="M280.42 205.79L261.45 222.81H343.76L359.84 205.79H280.42Z" fill="#0486FF"/>
<path opacity="0.3" d="M280.42 205.79L261.45 222.81H343.76L359.84 205.79H280.42Z" fill="white"/>
<path d="M321.41 233.17C328.81 233.17 333.84 237.53 333.84 244.72C333.84 252.51 328.32 255.94 320.91 255.94L320.69 260.31H315.22L314.94 251.63H316.76C323.01 251.63 327.82 250.52 327.82 244.72C327.82 240.85 325.44 238.47 321.46 238.47C317.48 238.47 315.05 240.68 315.05 244.55H309.14C309.08 237.86 313.89 233.17 321.41 233.17ZM317.87 272.52C317.079 272.52 316.305 272.285 315.648 271.846C314.99 271.406 314.477 270.782 314.174 270.051C313.872 269.32 313.792 268.515 313.947 267.74C314.101 266.964 314.482 266.251 315.042 265.691C315.601 265.132 316.314 264.751 317.09 264.597C317.865 264.442 318.67 264.522 319.401 264.824C320.132 265.127 320.756 265.64 321.196 266.298C321.635 266.955 321.87 267.729 321.87 268.52C321.87 269.581 321.449 270.598 320.698 271.348C319.948 272.098 318.931 272.52 317.87 272.52Z" fill="white"/>
<path d="M363.28 285.25H269.62V293.48H363.28V285.25Z" fill="#0486FF"/>
<path opacity="0.3" d="M363.28 285.25H269.62V293.48H363.28V285.25Z" fill="black"/>
<path d="M398.07 285.25H363.28V293.48H398.07V285.25Z" fill="#0486FF"/>
<path opacity="0.5" d="M398.07 285.25H363.28V293.48H398.07V285.25Z" fill="black"/>
<path d="M331.61 293.48H325.97V448.37H331.61V293.48Z" fill="#263238"/>
<path opacity="0.2" d="M331.61 293.48H325.97V448.37H331.61V293.48Z" fill="white"/>
<path opacity="0.2" d="M331.61 297.33L325.97 299.67V293.48H331.61V297.33Z" fill="black"/>
<path d="M309.33 445.22H348.26C350.416 445.22 352.484 446.077 354.009 447.601C355.533 449.126 356.39 451.194 356.39 453.35H301.19C301.19 452.282 301.401 451.224 301.81 450.237C302.219 449.25 302.819 448.353 303.575 447.598C304.331 446.843 305.228 446.244 306.216 445.836C307.203 445.428 308.261 445.219 309.33 445.22Z" fill="#0486FF"/>
<path d="M87 373.05C87 373.05 93.82 370.56 95.59 377.78C97.36 385 102.41 383.15 103.37 381.56C105.26 378.44 105.52 367.15 102.28 366.47C98.35 365.65 88.31 369.75 87 373.05Z" fill="#0486FF"/>
<g opacity="0.4">
<path d="M87 373.05C87 373.05 93.82 370.56 95.59 377.78C97.36 385 102.41 383.15 103.37 381.56C105.26 378.44 105.52 367.15 102.28 366.47C98.35 365.65 88.31 369.75 87 373.05Z" fill="black"/>
</g>
<path d="M102.23 366.47C94.2299 366.58 92.1099 373.61 90.8199 379.81L88.2199 375L90.0599 383.62C89.8599 384.57 89.6599 385.44 89.4199 386.19C88.789 388.026 87.7545 389.698 86.3926 391.083C85.0307 392.467 83.376 393.529 81.5499 394.19C81.5499 394.19 81.1899 391.71 80.8699 388.19L83.7899 383.61L80.6199 384.94C80.2699 379.48 80.2199 372.94 81.5499 369.17C84.1199 361.94 91.0199 364.17 91.0199 364.17L102.23 366.47Z" fill="#0486FF"/>
<path d="M122.17 358.88C122.17 358.88 117.97 357.61 113.57 363.62C109.34 369.4 107.65 370.08 104.78 367.83C101.91 365.58 103.64 352.98 106.89 352.3C110.76 351.49 120.8 355.59 122.17 358.88Z" fill="#0486FF"/>
<g opacity="0.4">
<path d="M122.17 358.88C122.17 358.88 117.97 357.61 113.57 363.62C109.34 369.4 107.65 370.08 104.78 367.83C101.91 365.58 103.64 352.98 106.89 352.3C110.76 351.49 120.8 355.59 122.17 358.88Z" fill="black"/>
</g>
<path d="M135.66 391.71C132.153 390.427 129.095 388.151 126.86 385.16L131.49 374.3L125.14 382.21C124.861 381.603 124.624 380.978 124.43 380.34C121.68 371.63 122.24 352.71 106.43 352.48L122.16 348.9C122.16 348.9 132 345.72 135.67 356.04C136.659 359.327 137.184 362.737 137.23 366.17L131.5 360.87C131.5 360.87 135.5 366.63 137.29 369.03C137.243 376.617 136.699 384.194 135.66 391.71Z" fill="#0486FF"/>
<path d="M82.1499 342.12C82.1499 342.12 88.9799 339.63 90.7499 346.86C92.5199 354.09 101.4 356.86 102.32 353.32C103.32 349.55 101.14 336.12 97.8899 335.44C93.9999 334.63 83.5199 338.83 82.1499 342.12Z" fill="#0486FF"/>
<g opacity="0.4">
<path d="M82.1499 342.12C82.1499 342.12 88.9799 339.63 90.7499 346.86C92.5199 354.09 101.4 356.86 102.32 353.32C103.32 349.55 101.14 336.12 97.8899 335.44C93.9999 334.63 83.5199 338.83 82.1499 342.12Z" fill="black"/>
</g>
<path d="M98.18 335.5C85.25 335.69 83.08 348.5 81.18 357.95L74.59 348.44C74.67 348.72 78.16 360.06 79.52 364.55C76.52 372.49 68.62 374.95 68.62 374.95C68.62 374.95 66.43 359.78 67.13 348.13L72.47 343.68L67.42 344.93C67.6128 343.008 68.0152 341.114 68.62 339.28C72.29 328.97 82.14 332.15 82.14 332.15L98.18 335.5Z" fill="#0486FF"/>
<path d="M103.32 398.65C103.201 398.635 103.093 398.574 103.019 398.481C102.944 398.387 102.909 398.269 102.92 398.15C105.476 373.341 103.124 348.271 96 324.37C95.9615 324.256 95.9692 324.131 96.0216 324.023C96.0739 323.914 96.1667 323.831 96.28 323.79C96.3941 323.755 96.5173 323.765 96.6237 323.82C96.73 323.874 96.8112 323.967 96.85 324.08C96.97 324.41 108.25 358.2 103.75 398.25C103.738 398.357 103.688 398.456 103.609 398.53C103.53 398.603 103.428 398.646 103.32 398.65Z" fill="#0486FF"/>
<path d="M120.72 395.75H86.1099V400.6H120.72V395.75Z" fill="#263238"/>
<path opacity="0.2" d="M120.72 395.75H86.1099V400.6H120.72V395.75Z" fill="white"/>
<path d="M115.13 400.6H91.51C88.68 407.18 79.51 426.6 79.51 432.33C79.51 439.12 87.97 453.26 87.97 453.26C87.97 454.26 118.68 454.26 118.68 453.26C118.68 453.26 127.14 439.12 127.14 432.33C127.14 426.6 118 407.18 115.13 400.6Z" fill="#263238"/>
<path d="M152.15 130.29C163.775 130.29 173.2 120.866 173.2 109.24C173.2 97.6143 163.775 88.1899 152.15 88.1899C140.524 88.1899 131.1 97.6143 131.1 109.24C131.1 120.866 140.524 130.29 152.15 130.29Z" fill="#0486FF"/>
<g opacity="0.7">
<path d="M152.15 130.29C163.775 130.29 173.2 120.866 173.2 109.24C173.2 97.6143 163.775 88.1899 152.15 88.1899C140.524 88.1899 131.1 97.6143 131.1 109.24C131.1 120.866 140.524 130.29 152.15 130.29Z" fill="white"/>
</g>
<path d="M152.15 130.72C147.901 130.722 143.747 129.464 140.214 127.105C136.68 124.746 133.925 121.392 132.298 117.467C130.671 113.542 130.244 109.223 131.071 105.055C131.899 100.888 133.944 97.0597 136.948 94.0547C139.951 91.0496 143.779 89.0029 147.946 88.1732C152.113 87.3436 156.432 87.7684 160.358 89.3939C164.283 91.0194 167.638 93.7725 169.999 97.3051C172.36 100.838 173.62 104.991 173.62 109.24C173.615 114.933 171.351 120.392 167.326 124.419C163.301 128.446 157.843 130.712 152.15 130.72ZM152.15 88.6298C148.071 88.6278 144.083 89.8357 140.69 92.1007C137.298 94.3657 134.653 97.586 133.091 101.354C131.53 105.122 131.12 109.269 131.916 113.27C132.711 117.271 134.675 120.946 137.559 123.83C140.444 126.715 144.119 128.679 148.12 129.474C152.12 130.269 156.267 129.86 160.035 128.298C163.804 126.736 167.024 124.092 169.289 120.699C171.554 117.307 172.762 113.319 172.76 109.24C172.752 103.776 170.578 98.5385 166.715 94.6751C162.851 90.8117 157.614 88.6377 152.15 88.6298Z" fill="#0486FF"/>
<path d="M152.32 97.5498C156.87 97.5498 159.97 100.23 159.97 104.66C159.97 109.45 156.57 111.56 151.97 111.56L151.83 114.25H148.47L148.3 108.91H149.42C153.26 108.91 156.22 108.23 156.22 104.66C156.264 104.138 156.192 103.613 156.01 103.122C155.828 102.631 155.54 102.186 155.167 101.819C154.794 101.451 154.345 101.17 153.851 100.996C153.357 100.822 152.831 100.758 152.31 100.81C149.89 100.81 148.36 102.17 148.36 104.55H144.72C144.73 100.44 147.69 97.5498 152.32 97.5498ZM150.14 121.77C149.646 121.778 149.161 121.638 148.746 121.37C148.331 121.101 148.006 120.715 147.811 120.261C147.617 119.806 147.562 119.305 147.653 118.819C147.745 118.333 147.978 117.886 148.325 117.534C148.672 117.181 149.115 116.94 149.599 116.841C150.083 116.742 150.586 116.789 151.043 116.976C151.501 117.163 151.892 117.482 152.167 117.892C152.443 118.303 152.59 118.786 152.59 119.28C152.595 119.605 152.536 119.928 152.415 120.23C152.294 120.532 152.115 120.806 151.887 121.038C151.659 121.27 151.387 121.454 151.087 121.58C150.787 121.705 150.465 121.77 150.14 121.77Z" fill="#0486FF"/>
<path d="M165.31 125.66L172.18 129.07C172.259 129.113 172.349 129.13 172.438 129.119C172.527 129.109 172.61 129.07 172.677 129.01C172.743 128.949 172.788 128.869 172.807 128.781C172.825 128.694 172.816 128.602 172.78 128.52L169.78 120.73C168.556 122.596 167.047 124.259 165.31 125.66Z" fill="#0486FF"/>
<path d="M170.77 164C171.77 168.84 212.89 166.92 210.97 160.67C210.539 159.557 210.038 158.471 209.47 157.42C206.8 151.67 202.35 144.42 187.98 144.49C179.33 144.52 167.94 149.75 170.77 164Z" fill="#0486FF"/>
<path d="M221.75 435.85L223.86 446.51H229.49L230.25 435.85H221.75Z" fill="#FFC3BD"/>
<path d="M228.75 445.16C229.034 444.803 229.412 444.533 229.841 444.379C230.271 444.225 230.734 444.195 231.18 444.29C232.53 444.74 234.3 446.96 234.3 446.96C234.3 446.96 241.65 449.32 243.64 449.44C245.63 449.56 247.36 450.68 248.1 454.53H224C224 454.53 223.05 445.84 222.9 444.36C222.75 442.88 225.11 444.73 225.11 444.73L228.75 445.16Z" fill="#0486FF"/>
<path d="M247.39 453.38H243.05L224.05 453.18C223.81 453.18 223.81 452.8 224.05 452.81H225.33C225.325 452.794 225.325 452.776 225.33 452.76C225.705 451.816 225.707 450.765 225.336 449.82C224.964 448.875 224.247 448.106 223.33 447.67C223.309 447.658 223.291 447.643 223.276 447.624C223.261 447.605 223.25 447.583 223.243 447.56C223.237 447.537 223.235 447.512 223.238 447.488C223.241 447.464 223.248 447.441 223.26 447.42C223.272 447.399 223.288 447.381 223.307 447.366C223.326 447.351 223.347 447.34 223.371 447.333C223.394 447.327 223.418 447.325 223.442 447.328C223.466 447.331 223.489 447.338 223.51 447.35C224.489 447.824 225.253 448.649 225.651 449.66C226.049 450.672 226.053 451.796 225.66 452.81H228.33L247.33 453.01C247.63 453 247.63 453.39 247.39 453.38Z" fill="black"/>
<path d="M233.45 448.47C233.622 448.189 233.852 447.947 234.125 447.76C234.397 447.574 234.706 447.447 235.031 447.389C235.356 447.33 235.69 447.341 236.01 447.421C236.33 447.5 236.63 447.647 236.89 447.85C237.08 447.99 237.27 447.67 237.08 447.53C236.777 447.293 236.426 447.123 236.052 447.032C235.678 446.941 235.289 446.93 234.91 447.001C234.532 447.072 234.173 447.223 233.857 447.443C233.542 447.664 233.277 447.949 233.08 448.28C232.94 448.48 233.26 448.67 233.4 448.47H233.45Z" fill="white"/>
<path d="M235.52 449.1C235.692 448.818 235.921 448.575 236.193 448.388C236.465 448.2 236.774 448.073 237.099 448.013C237.424 447.954 237.758 447.964 238.078 448.042C238.399 448.121 238.7 448.267 238.96 448.47C239.16 448.62 239.34 448.3 239.15 448.15C238.846 447.913 238.495 447.744 238.121 447.654C237.746 447.563 237.357 447.553 236.978 447.625C236.6 447.697 236.241 447.849 235.926 448.071C235.61 448.292 235.346 448.578 235.15 448.91C235.01 449.11 235.34 449.29 235.47 449.1H235.52Z" fill="white"/>
<path d="M237.67 449.72C237.841 449.439 238.07 449.197 238.342 449.011C238.614 448.824 238.922 448.698 239.246 448.639C239.57 448.58 239.903 448.591 240.222 448.671C240.542 448.75 240.841 448.897 241.1 449.1C241.3 449.24 241.48 448.92 241.29 448.78C240.988 448.55 240.641 448.387 240.271 448.3C239.902 448.214 239.518 448.206 239.145 448.278C238.772 448.349 238.419 448.499 238.108 448.716C237.797 448.934 237.535 449.215 237.34 449.54C237.21 449.73 237.53 449.92 237.67 449.72Z" fill="white"/>
<path d="M171.34 435.93L172.51 446.51H178.14L179.83 435.93H171.34Z" fill="#FFC3BD"/>
<path d="M177.4 445.16C177.682 444.804 178.059 444.534 178.486 444.38C178.914 444.227 179.376 444.195 179.82 444.29C181.18 444.74 182.95 446.96 182.95 446.96C182.95 446.96 190.3 449.32 192.29 449.44C194.28 449.56 196.01 450.68 196.75 454.53H172.69C172.69 454.53 171.74 445.84 171.59 444.36C171.44 442.88 173.8 444.73 173.8 444.73L177.4 445.16Z" fill="#0486FF"/>
<path d="M196 453.38H191.66L172.66 453.18C172.42 453.18 172.42 452.8 172.66 452.81H173.94C173.935 452.794 173.935 452.776 173.94 452.76C174.315 451.816 174.317 450.765 173.946 449.82C173.574 448.875 172.857 448.106 171.94 447.67C171.919 447.658 171.901 447.643 171.886 447.624C171.871 447.605 171.86 447.583 171.853 447.56C171.847 447.537 171.845 447.512 171.848 447.488C171.851 447.464 171.858 447.441 171.87 447.42C171.882 447.399 171.898 447.381 171.917 447.366C171.936 447.351 171.957 447.34 171.981 447.333C172.004 447.327 172.028 447.325 172.052 447.328C172.076 447.331 172.099 447.338 172.12 447.35C173.098 447.824 173.863 448.649 174.261 449.66C174.659 450.672 174.663 451.796 174.27 452.81H176.94L195.94 453.01C196.28 453 196.28 453.39 196 453.38Z" fill="black"/>
<path d="M182.1 448.47C182.272 448.189 182.502 447.947 182.775 447.76C183.047 447.574 183.356 447.447 183.681 447.389C184.006 447.33 184.339 447.341 184.66 447.421C184.98 447.5 185.28 447.647 185.54 447.85C185.73 447.99 185.92 447.67 185.73 447.53C185.429 447.3 185.082 447.136 184.713 447.049C184.344 446.961 183.96 446.953 183.588 447.023C183.215 447.094 182.861 447.243 182.55 447.459C182.238 447.676 181.976 447.956 181.78 448.28C181.64 448.48 181.96 448.67 182.1 448.47Z" fill="white"/>
<path d="M184.17 449.1C184.342 448.818 184.571 448.575 184.843 448.388C185.115 448.2 185.424 448.073 185.749 448.013C186.074 447.954 186.407 447.964 186.728 448.042C187.049 448.121 187.35 448.267 187.61 448.47C187.8 448.62 187.99 448.3 187.8 448.15C187.496 447.913 187.145 447.744 186.771 447.654C186.396 447.563 186.007 447.553 185.628 447.625C185.25 447.697 184.891 447.849 184.575 448.071C184.26 448.292 183.996 448.578 183.8 448.91C183.66 449.11 183.99 449.29 184.12 449.1H184.17Z" fill="white"/>
<path d="M186.32 449.72C186.491 449.439 186.72 449.197 186.992 449.011C187.264 448.824 187.572 448.698 187.896 448.639C188.22 448.58 188.553 448.591 188.872 448.671C189.192 448.75 189.491 448.897 189.75 449.1C189.95 449.24 190.13 448.92 189.94 448.78C189.638 448.55 189.291 448.387 188.921 448.3C188.552 448.214 188.168 448.206 187.795 448.278C187.423 448.349 187.069 448.499 186.758 448.716C186.447 448.934 186.185 449.215 185.99 449.54C185.86 449.73 186.18 449.92 186.32 449.72Z" fill="white"/>
<path d="M219.88 436.23H232.31C233.39 420.23 236.43 367.16 234.03 340.9C235.76 304.47 230.19 256.12 230.19 256.12H190.8C190.8 256.12 193.69 288.48 206.64 340.38C206.55 381.5 216.59 422.61 219.88 436.23Z" fill="#263238"/>
<path opacity="0.2" d="M204.52 331.66C211.64 302.57 205.39 264.86 205.39 264.86L199.24 307.94L204.52 331.66Z" fill="black"/>
<path d="M218.4 435.92L219.31 440.64L233.57 440.58V435.85L218.4 435.92Z" fill="#263238"/>
<path d="M169.57 436.69H182C186.43 420.22 195.33 367.26 196.75 341C203.8 304.57 207.17 256.12 207.17 256.12H167.78C167.78 256.12 164.11 288.85 169.5 340.75C168.45 386 169.28 422.61 169.57 436.69Z" fill="#263238"/>
<path d="M168.48 435.9L168.45 440.59H182.82L183.58 435.91L168.48 435.9Z" fill="#263238"/>
<path d="M235.34 262.06C208 272.56 163.51 265 163.51 265C164.04 251.64 164.51 225.18 164.32 203.19C164.32 202.68 164.32 202.19 164.32 201.66C164.32 198.54 164.24 195.52 164.18 192.66C164.18 192.31 164.18 191.96 164.18 191.66C164 186 163.81 181 163.55 177C163.05 169.51 167.12 162.54 174.55 161.29C176.8 160.91 179.23 160.58 181.76 160.29L183.59 160.1C190.817 159.393 198.081 159.129 205.34 159.31H206.39H206.95H207.86C210.99 159.44 213.96 159.67 216.62 160.02C222.62 160.8 228.03 165.57 228.13 171.67C228.22 177.26 228.77 189.06 229.56 202.37C229.86 207.37 230.2 212.68 230.56 217.9C232 238.55 233.8 258.47 235.34 262.06Z" fill="#0486FF"/>
<path d="M165.63 237.61C165.587 237.6 165.543 237.6 165.5 237.61L161.5 245.04L160.74 244.61L160.55 244.49L160.43 244.41L160.21 244.25L159.75 243.93L159.38 243.65C158.87 243.27 158.46 242.93 158.02 242.57C157.19 241.86 156.4 241.16 155.63 240.45C154.1 239.04 152.63 237.63 151.17 236.2C148.29 233.31 145.5 230.37 142.79 227.35C140.08 224.33 137.43 221.24 134.79 217.93C134.14 217.1 133.48 216.24 132.79 215.32C132.46 214.84 132.14 214.4 131.79 213.85C131.44 213.3 131.11 212.76 130.72 212.03L130.41 211.37L130.25 211.04L130.03 210.43L129.84 209.79C129.734 209.445 129.664 209.09 129.63 208.73C129.554 208.066 129.554 207.395 129.63 206.73L129.69 206.24C129.69 206.09 129.75 205.9 129.77 205.84L129.92 205.31C130.034 204.95 130.168 204.596 130.32 204.25L130.55 203.75L130.68 203.5L130.73 203.41L131.16 202.7C131.5 202.16 131.66 201.95 131.88 201.64C132.73 200.47 133.41 199.64 134.12 198.79C136.91 195.5 139.67 192.59 142.46 189.64C145.25 186.69 148.07 183.86 150.94 181.07C156.65 175.44 162.45 169.97 168.5 164.7L179.94 177.28C174.25 182.73 168.38 188.06 162.53 193.34L153.79 201.26C150.99 203.77 148.17 206.36 145.64 208.84C145.84 209.2 146.05 209.56 146.27 209.92C148.21 213.12 150.41 216.37 152.57 219.61C154.73 222.85 156.99 226.08 159.25 229.25C160.37 230.85 161.5 232.43 162.65 233.96C163.22 234.73 163.8 235.46 164.36 236.17L165.15 237.17L165.46 237.54L165.63 237.61Z" fill="#0486FF"/>
<path d="M196.9 210.69C196.867 210.688 196.835 210.679 196.806 210.664C196.776 210.649 196.75 210.628 196.729 210.603C196.708 210.578 196.691 210.549 196.681 210.517C196.671 210.486 196.667 210.453 196.67 210.42C198.13 189.81 193.03 168.32 192.98 168.11C192.964 168.045 192.975 167.976 193.009 167.919C193.044 167.862 193.1 167.821 193.165 167.805C193.23 167.789 193.299 167.8 193.356 167.834C193.413 167.869 193.454 167.925 193.47 167.99C193.52 168.21 198.64 189.76 197.17 210.46C197.168 210.493 197.159 210.525 197.144 210.554C197.129 210.584 197.108 210.61 197.083 210.631C197.058 210.653 197.029 210.669 196.997 210.679C196.966 210.689 196.933 210.693 196.9 210.69Z" fill="white"/>
<path d="M208.67 210.22C208.606 210.215 208.546 210.185 208.503 210.137C208.46 210.088 208.437 210.025 208.44 209.96C209.9 189.34 204.81 167.86 204.76 167.65C204.747 167.617 204.74 167.581 204.742 167.545C204.743 167.51 204.752 167.474 204.768 167.442C204.785 167.41 204.807 167.382 204.835 167.36C204.863 167.337 204.896 167.321 204.931 167.313C204.966 167.304 205.002 167.303 205.037 167.309C205.072 167.316 205.106 167.33 205.135 167.351C205.165 167.371 205.189 167.398 205.207 167.429C205.225 167.46 205.237 167.494 205.24 167.53C205.29 167.74 210.41 189.3 208.94 209.99C208.938 210.023 208.929 210.055 208.914 210.084C208.899 210.114 208.878 210.14 208.853 210.161C208.828 210.183 208.799 210.199 208.768 210.209C208.736 210.219 208.703 210.223 208.67 210.22Z" fill="white"/>
<path opacity="0.2" d="M230.55 218C220.274 202.993 212.647 186.335 208 168.75L229.56 202.47C229.84 207.51 230.18 212.78 230.55 218Z" fill="black"/>
<path opacity="0.2" d="M178 231.06C178 231.06 179.94 244.18 179.25 251.73C179.25 251.73 200.79 255.11 223.46 250.09C224.476 243.293 224.063 236.359 222.25 229.73C208.93 229.06 194 229.68 178 231.06Z" fill="black"/>
<path d="M210.55 117.55C208.447 116.781 206.207 116.451 203.971 116.582C201.735 116.713 199.55 117.301 197.55 118.31C194.92 119.68 192.64 121.77 192.7 124.91C192.83 132.24 194.87 144.49 194.87 144.49L219.6 133.31C219.6 133.31 221.4 127.18 218.51 123.31C216.527 120.603 213.742 118.588 210.55 117.55Z" fill="#263238"/>
<path d="M192.78 132.58C192.78 132.58 193.32 130.46 190.86 126.5C188.4 122.54 191.1 120.09 192.98 120.65C192.98 120.65 191.98 118.22 193.64 117.39C195.3 116.56 196.1 117.5 196.1 117.5C198.177 116.002 200.536 114.939 203.035 114.375C205.534 113.811 208.121 113.759 210.64 114.22C217.39 115.56 222.37 110.85 224.88 112.68C227.39 114.51 222.88 116.23 222.88 116.23C222.88 116.23 226.88 118.46 226.3 120.54C225.72 122.62 221.96 122.78 221.96 122.78C221.96 122.78 225.81 125.34 224.24 127.04C222.67 128.74 217.77 126.68 217.77 126.68C217.77 126.68 198.3 126.58 192.78 132.58Z" fill="#263238"/>
<path d="M205.65 153.6C205.647 153.627 205.647 153.654 205.65 153.68L204.09 157.74C203.914 158.569 203.81 159.413 203.78 160.26C203.762 160.928 203.792 161.596 203.87 162.26C204.65 163.62 204.78 166.52 201.52 166.18C197.4 165.76 190.42 159.3 190.34 157.45C192.86 152.04 195.25 145.26 195.52 139.85L199.67 145.44L205.65 153.6Z" fill="#FFC3BD"/>
<g opacity="0.2">
<path d="M205.61 153.69L204.05 157.75C201.6 156.29 199.18 153.47 198.87 150.66C198.65 148.66 199.74 146.88 200.55 146.87L205.61 153.69Z" fill="black"/>
</g>
<path d="M217 146.09C216.66 146.97 216.29 147.83 215.9 148.68C212.46 156.18 202.78 155.85 197.43 149.46C196.941 148.88 196.499 148.262 196.11 147.61C192.86 142.21 194.23 138.47 195.75 129.82C196.089 127.812 196.934 125.923 198.205 124.331C199.476 122.739 201.132 121.497 203.015 120.722C204.899 119.947 206.949 119.664 208.972 119.9C210.995 120.135 212.925 120.883 214.58 122.07C221.38 127 220.41 137.28 217 146.09Z" fill="#FFC3BD"/>
<path d="M209.25 145.27C209.097 145.485 208.887 145.651 208.644 145.752C208.401 145.853 208.134 145.884 207.874 145.841C207.615 145.799 207.372 145.684 207.174 145.511C206.976 145.337 206.831 145.112 206.754 144.86C206.678 144.608 206.673 144.34 206.741 144.085C206.809 143.831 206.947 143.601 207.139 143.421C207.331 143.241 207.57 143.119 207.828 143.067C208.086 143.016 208.354 143.038 208.6 143.13C208.965 143.333 209.236 143.67 209.357 144.069C209.479 144.468 209.44 144.899 209.25 145.27Z" fill="white"/>
<path d="M203 128.46C205.25 128.15 203.72 125.66 204.2 124.26C205.78 119.73 218.11 122.83 219.53 129.77C219.53 129.77 219.19 124.48 215.34 121.24C211.49 118 203.21 116.53 199.4 120.24C195.59 123.95 195.57 130.58 195.57 130.58C195.518 131.304 195.747 132.021 196.21 132.58C196.62 132.98 197.34 134.81 198.54 135.29C199.54 135.71 200.34 135.54 200.72 134.06C201.1 132.58 201.44 128.67 203 128.46Z" fill="#263238"/>
<path d="M190.69 134.61C190.742 135.702 191.009 136.773 191.475 137.761C191.942 138.75 192.6 139.636 193.41 140.37C195.6 142.32 197.97 140.68 198.41 137.94C198.83 135.48 198.2 131.51 195.49 130.61C192.78 129.71 190.49 131.91 190.66 134.61" fill="#FFC3BD"/>
<path d="M208.36 135.1C208.2 135.78 208.43 136.41 208.87 136.51C209.31 136.61 209.79 136.16 209.95 135.51C210.11 134.86 209.89 134.2 209.45 134.1C209.01 134 208.52 134.45 208.36 135.1Z" fill="#263238"/>
<path d="M215.74 136.78C215.58 137.45 215.81 138.08 216.25 138.19C216.69 138.3 217.17 137.83 217.33 137.19C217.49 136.55 217.27 135.89 216.83 135.79C216.39 135.69 215.91 136.14 215.74 136.79" fill="#263238"/>
<path d="M218.38 134.76C218.32 134.745 218.265 134.715 218.22 134.673C218.174 134.631 218.14 134.579 218.12 134.52C218.067 134.28 217.966 134.052 217.823 133.851C217.681 133.65 217.499 133.48 217.29 133.35C216.842 133.144 216.336 133.102 215.86 133.23C215.817 133.245 215.771 133.252 215.725 133.248C215.679 133.245 215.635 133.232 215.594 133.21C215.554 133.188 215.518 133.159 215.49 133.122C215.462 133.086 215.441 133.045 215.43 133C215.416 132.957 215.411 132.911 215.415 132.866C215.42 132.821 215.433 132.777 215.454 132.737C215.476 132.696 215.505 132.661 215.54 132.632C215.576 132.604 215.616 132.583 215.66 132.57C216.324 132.37 217.04 132.431 217.66 132.74C217.954 132.91 218.21 133.139 218.412 133.413C218.613 133.686 218.755 133.999 218.83 134.33C218.844 134.374 218.848 134.42 218.844 134.466C218.839 134.512 218.825 134.556 218.802 134.597C218.78 134.637 218.749 134.672 218.713 134.7C218.677 134.728 218.635 134.749 218.59 134.76C218.557 134.775 218.521 134.783 218.485 134.783C218.449 134.783 218.413 134.775 218.38 134.76Z" fill="#263238"/>
<path d="M206.93 132C206.871 131.992 206.816 131.967 206.77 131.93C206.694 131.866 206.646 131.774 206.637 131.675C206.627 131.576 206.657 131.477 206.72 131.4C207.206 130.846 207.879 130.49 208.61 130.4C208.976 130.381 209.342 130.437 209.686 130.564C210.03 130.691 210.344 130.887 210.61 131.14C210.68 131.213 210.719 131.309 210.719 131.41C210.719 131.511 210.68 131.607 210.61 131.68C210.539 131.749 210.444 131.788 210.345 131.788C210.246 131.788 210.151 131.749 210.08 131.68C209.889 131.496 209.663 131.352 209.416 131.255C209.169 131.159 208.905 131.113 208.64 131.12C208.108 131.191 207.621 131.454 207.27 131.86C207.23 131.91 207.178 131.949 207.118 131.974C207.059 131.998 206.994 132.007 206.93 132Z" fill="#263238"/>
<path d="M213 135.6C213.206 137.384 213.636 139.134 214.28 140.81C215.22 142.95 211.53 142.15 211.53 142.15L213 135.6Z" fill="#ED847E"/>
<path opacity="0.2" d="M177.14 180.37L164.3 201.61C164.3 198.49 164.22 195.47 164.16 192.61C164.16 192.26 164.16 191.91 164.16 191.61L177.14 180.37Z" fill="black"/>
<path d="M239.16 212.18C237.19 213.052 234.97 213.176 232.915 212.528C230.861 211.88 229.113 210.505 228 208.66L227.56 207.92L226.69 206.43C226.54 206.19 226.4 205.94 226.26 205.69C225.79 204.89 225.33 204.08 224.86 203.27L223.31 200.56L221.77 197.85C221.25 196.95 220.77 196.04 220.24 195.14C219.71 194.24 219.24 193.32 218.72 192.41L218.54 192.08L215.7 186.94C213.7 183.28 211.7 179.61 209.82 175.94C207.94 172.27 206 168.52 204.21 164.73L212.08 159.58C214.83 162.74 217.47 165.98 220.08 169.23L220.95 170.32L226.95 167.18C228.45 169.82 229.87 172.5 231.27 175.18C232.67 177.86 234.04 180.58 235.38 183.3C236.72 186.02 238.06 188.75 239.38 191.5C240.7 194.25 241.97 197 243.23 199.76L243.58 200.54C244.055 201.595 244.317 202.732 244.352 203.888C244.386 205.044 244.193 206.195 243.783 207.276C243.372 208.357 242.753 209.347 241.959 210.188C241.166 211.03 240.215 211.706 239.16 212.18Z" fill="#0486FF"/>
<path d="M223.26 200.56L223 200C222.06 198.38 221.14 196.75 220.24 195.11C220.74 196.01 221.24 196.92 221.77 197.82L223.26 200.56Z" fill="#0486FF"/>
<path d="M212 161.58C211.81 163.1 210.71 165.46 208.5 165.38C207.128 165.313 205.776 165.019 204.5 164.51C202.81 164.08 199.64 163.01 198.55 160.92C197.02 158 199.41 153.42 199.41 153.42C196.93 151.07 194 147.03 196.05 147.95C198.1 148.87 206.14 154.49 209.05 153.85C211.73 153.26 212.67 150.94 213.67 151.41C214.67 151.88 212.67 154.03 211.61 156.19C212.004 157.958 212.135 159.774 212 161.58Z" fill="#FFC3BD"/>
<g opacity="0.2">
<path d="M203.79 164.55H203.68C203.48 164.45 198.62 162.17 197.74 159.69C196.96 157.47 198.64 154.28 199.1 153.48C197.7 152.324 196.468 150.977 195.44 149.48C195.09 148.76 195.01 148.24 195.2 147.9C195.244 147.818 195.306 147.748 195.383 147.696C195.46 147.643 195.548 147.611 195.64 147.6C196.64 147.6 197.72 148.38 199.17 149.45C200.922 150.818 202.829 151.976 204.85 152.9C209.22 154.82 210.01 153.65 210.53 152.9L210.72 152.61C211.3 151.78 212.27 150.39 213.91 151.06C213.94 151.072 213.967 151.09 213.99 151.113C214.013 151.136 214.031 151.163 214.043 151.192C214.055 151.222 214.061 151.254 214.061 151.287C214.06 151.319 214.053 151.351 214.04 151.38C214.029 151.411 214.012 151.439 213.99 151.463C213.967 151.487 213.94 151.506 213.91 151.519C213.88 151.532 213.848 151.539 213.815 151.539C213.783 151.539 213.75 151.533 213.72 151.52C212.54 151.05 211.85 151.86 211.13 152.9L210.94 153.18C210.16 154.33 209.03 155.3 204.65 153.38C202.595 152.441 200.659 151.263 198.88 149.87C197.55 148.87 196.51 148.13 195.67 148.11C195.67 148.11 195.67 148.11 195.67 148.18C195.67 148.25 195.56 148.52 195.93 149.28C196.61 150.68 199.59 153.28 199.62 153.28C199.659 153.324 199.681 153.381 199.681 153.44C199.681 153.499 199.659 153.556 199.62 153.6C199.62 153.6 197.4 157.28 198.2 159.6C199 161.92 203.84 164.15 203.88 164.17C203.933 164.193 203.977 164.233 204.004 164.284C204.031 164.336 204.039 164.395 204.027 164.451C204.015 164.508 203.984 164.558 203.939 164.595C203.894 164.631 203.838 164.651 203.78 164.65L203.79 164.55Z" fill="black"/>
</g>
<path opacity="0.2" d="M215.58 163.58L237 196.17C237 196.17 234.5 185.25 215.58 163.58Z" fill="black"/>
<path d="M164.17 237.78C164.17 237.78 172.79 240.43 173.48 242.11C174.17 243.79 171.34 243.36 171.34 243.36C171.34 243.36 174.41 244 174.34 245.19C174.24 246.61 171.29 246.14 171.29 246.14C171.29 246.14 173.78 246.76 173.63 247.8C173.48 248.84 170.1 248.57 170.1 248.57C170.1 248.57 171.78 249.3 171.2 249.95C170.62 250.6 164.36 250.15 162.38 248.74C160.4 247.33 161.68 239.44 162.26 237.74C162.84 236.04 161.82 234.24 164.26 232.27L164.18 237.8L164.17 237.78Z" fill="#FFC3BD"/>
<path opacity="0.2" d="M171.32 243.49L166 242.13C165.966 242.121 165.937 242.099 165.919 242.069C165.9 242.04 165.894 242.004 165.9 241.97C165.913 241.937 165.937 241.909 165.968 241.891C165.999 241.873 166.035 241.865 166.07 241.87L171.37 243.23C171.387 243.234 171.404 243.241 171.418 243.251C171.433 243.261 171.445 243.274 171.454 243.289C171.464 243.304 171.47 243.32 171.473 243.338C171.475 243.355 171.474 243.373 171.47 243.39C171.463 243.423 171.443 243.452 171.415 243.47C171.387 243.489 171.353 243.496 171.32 243.49Z" fill="black"/>
<path opacity="0.2" d="M171.11 246.25L165.92 245.3C165.902 245.299 165.885 245.294 165.869 245.286C165.854 245.277 165.84 245.265 165.829 245.251C165.819 245.237 165.812 245.22 165.808 245.203C165.805 245.185 165.806 245.167 165.81 245.15C165.807 245.126 165.81 245.101 165.819 245.078C165.828 245.056 165.843 245.036 165.862 245.02C165.881 245.005 165.904 244.995 165.928 244.992C165.952 244.988 165.977 244.991 166 245L171.2 246C171.234 246 171.268 246.014 171.292 246.038C171.316 246.062 171.33 246.096 171.33 246.13C171.33 246.164 171.316 246.198 171.292 246.222C171.268 246.246 171.234 246.26 171.2 246.26L171.11 246.25Z" fill="black"/>
<path opacity="0.2" d="M169.9 248.67L166.01 248.07C165.993 248.068 165.977 248.062 165.962 248.053C165.947 248.044 165.934 248.033 165.924 248.019C165.913 248.005 165.906 247.989 165.902 247.972C165.898 247.955 165.897 247.938 165.9 247.92C165.907 247.885 165.928 247.854 165.958 247.833C165.988 247.813 166.024 247.805 166.06 247.81L169.94 248.41C169.957 248.413 169.974 248.419 169.989 248.428C170.004 248.437 170.017 248.448 170.027 248.462C170.037 248.476 170.044 248.492 170.048 248.509C170.052 248.526 170.053 248.543 170.05 248.56C170.049 248.578 170.044 248.596 170.036 248.611C170.028 248.627 170.016 248.641 170.001 248.651C169.987 248.662 169.97 248.669 169.953 248.672C169.935 248.676 169.917 248.675 169.9 248.67Z" fill="black"/>
</g>
<defs>
<clipPath id="clip0_840_2769">
<rect width="500" height="500" fill="white"/>
</clipPath>
</defs>
</svg>
